<?xml version="1.0" encoding="iso-8859-1"?>
<!-- Generator: Adobe Illustrator 18.0.0, SVG Export Plug-In . SVG Version: 6.00 Build 0)  -->
<!DOCTYPE svg PUBLIC "-//W3C//DTD SVG 1.1//EN" "http://www.w3.org/Graphics/SVG/1.1/DTD/svg11.dtd">
<svg version="1.1" id="Capa_1" xmlns="http://www.w3.org/2000/svg" xmlns:xlink="http://www.w3.org/1999/xlink" x="0px" y="0px"
	 viewBox="0 0 490.264 490.264" style="enable-background:new 0 0 490.264 490.264;" xml:space="preserve">
<g>
	<polygon points="402.88,167.111 340.137,167.111 489.224,10.904 478.06,0.252 329.537,155.868 329.537,93.769 314.109,93.769 
		314.109,182.539 402.88,182.539 	"/>
	<polygon points="92.439,166.268 92.439,181.695 181.21,181.695 181.21,92.925 165.782,92.925 165.782,154.878 11.029,0.124 
		0.121,11.032 155.356,166.268 	"/>
	<polygon points="94.443,315.363 156.964,315.363 0,479.473 11.149,490.14 167.786,326.372 167.786,388.706 183.213,388.706 
		183.213,299.936 94.443,299.936 	"/>
	<polygon points="490.264,479.559 338.474,315.944 402.925,315.944 402.925,300.516 314.154,300.516 314.154,389.286 
		329.582,389.286 329.582,329.049 478.949,490.053 	"/>
</g>
<g>
</g>
<g>
</g>
<g>
</g>
<g>
</g>
<g>
</g>
<g>
</g>
<g>
</g>
<g>
</g>
<g>
</g>
<g>
</g>
<g>
</g>
<g>
</g>
<g>
</g>
<g>
</g>
<g>
</g>
</svg>
