<?xml version="1.0" ?><svg height="22px" version="1.1" viewBox="0 0 22 22" width="22px" xmlns="http://www.w3.org/2000/svg" xmlns:sketch="http://www.bohemiancoding.com/sketch/ns" xmlns:xlink="http://www.w3.org/1999/xlink"><title/><defs/><g fill="none" fill-rule="evenodd" id="miu" stroke="none" stroke-width="1"><path d="M0,4 L4,4 L4,0 L0,0 L0,4 Z M5,4 L17,4 L17,2 L5,2 L5,4 Z M5,20 L17,20 L17,18 L5,18 L5,20 Z M18,-8.79998652e-09 L18,4 L22,4 L22,-8.79998652e-09 L18,-8.79998652e-09 Z M0,18 L0,22 L4,22 L4,18 L0,18 Z M18,18 L18,22 L22,22 L22,18 L18,18 Z M2,17 L4,17 L4,5 L2,5 L2,17 Z M18,17 L20,17 L20,5 L18,5 L18,17 Z" fill="#000000" id="editor_crop_glyph"/></g></svg>
