<svg height="512" viewBox="0 0 60 60" width="512" xmlns="http://www.w3.org/2000/svg"><g id="Page-1" fill="none" fill-rule="evenodd"><g id="046---Photos" fill="rgb(0,0,0)" fill-rule="nonzero"><path id="Shape" d="m12 54h-7c-.55228475 0-1 .4477153-1 1s.44771525 1 1 1h7c.5522847 0 1-.4477153 1-1s-.4477153-1-1-1z"/><path id="Shape" d="m18 54h-2c-.5522847 0-1 .4477153-1 1s.4477153 1 1 1h2c.5522847 0 1-.4477153 1-1s-.4477153-1-1-1z"/><path id="Shape" d="m39 54h-4c-.5522847 0-1 .4477153-1 1s.4477153 1 1 1h4c.5522847 0 1-.4477153 1-1s-.4477153-1-1-1z"/><path id="Shape" d="m57.493 6.233-37.5-6.189c-.7842677-.13178794-1.5887401.05396545-2.2358345.51625615-.6470945.46229071-1.0836018 1.16310564-1.2131655 1.94774385l-1.892 11.492h-11.652c-1.65685425 0-3 1.3431458-3 3v40c0 1.6568542 1.34314575 3 3 3h38c1.6568542 0 3-1.3431458 3-3v-10.432l6.646 1.1c.1632961.0269297.3284987.0406409.494.041 1.467531.0002215 2.7198141-1.0612576 2.96-2.509l5.859-35.52c.1318224-.78423684-.0537682-1.5886986-.5158316-2.235925s-1.1626336-1.08403752-1.9471684-1.214075zm-54.493 9.767h38c.5522847 0 1 .4477153 1 1v33h-40v-33c0-.5522847.44771525-1 1-1zm38 42h-38c-.55228475 0-1-.4477153-1-1v-5h40v5c0 .5522847-.4477153 1-1 1zm9.973-12.307-6.973-1.151v-2.023l5.323.879c.0541468.0094942.1090274.0141791.164.014.518958-.002429.9498168-.4014424.9920091-.9186881.0421922-.5172457-.3183053-.9808108-.8300091-1.0673119l-5.649-.933v-2.025l8.938 1.477-.814 4.932c-.0936856.5424303-.608138.9071506-1.151.816zm2.29-7.721-9.263-1.53v-19.442c0-1.6568542-1.3431458-3-3-3h-24.322l1.839-11.167c.0419307-.25975922.185946-.49198387.4-.645.2177041-.15188839.4859241-.21320607.748-.171l37.5 6.189c.5419726.09369872.9065418.6074911.816 1.15z"/><path id="Shape" d="m22 48c8.2842712 0 15-6.7157288 15-15s-6.7157288-15-15-15-15 6.7157288-15 15c.00936852 8.2803876 6.7196124 14.9906315 15 15zm0-28c7.1797017 0 13 5.8202983 13 13s-5.8202983 13-13 13-13-5.8202983-13-13c.00826602-7.1762751 5.8237249-12.991734 13-13z"/><path id="Shape" d="m16 34c1.6568542 0 3-1.3431458 3-3s-1.3431458-3-3-3-3 1.3431458-3 3 1.3431458 3 3 3zm0-4c.5522847 0 1 .4477153 1 1s-.4477153 1-1 1-1-.4477153-1-1 .4477153-1 1-1z"/><path id="Shape" d="m28 34c1.6568542 0 3-1.3431458 3-3s-1.3431458-3-3-3-3 1.3431458-3 3 1.3431458 3 3 3zm0-4c.5522847 0 1 .4477153 1 1s-.4477153 1-1 1-1-.4477153-1-1 .4477153-1 1-1z"/><path id="Shape" d="m18 38c0 1.038.836 3 4 3s4-1.962 4-3c-.0015733-.5364756-.4325844-.9728243-.969-.981h-.031c-.5313974.0078666-.9671362.4235615-1 .954-.012.171-.16 1.028-2 1.028-1.826 0-1.987-.844-2-1.024-.0063513-.5522847-.4592153-.9948513-1.0115-.9885s-.9948513.4592153-.9885 1.0115z"/><path id="Shape" d="m7 0c-.55228475 0-1 .44771525-1 1v1.613l-1.684-.561c-.52467051-.17452197-1.09147801.1093295-1.26599999.634-.17452197.52467051.10932949 1.09147801.63399999 1.266l1.758.586-1.274 1.907c-.30651804.45950091-.18250091 1.08048196.277 1.387s1.08048196.18250091 1.387-.277l1.168-1.755 1.168 1.755c.30651804.4595009.92749908.58351802 1.38699999.27699999.45950091-.30651804.58351801-.92749908.27700001-1.38699999l-1.274-1.911 1.758-.586c.3394023-.11289592.5927937-.39828504.6647241-.74866403.0719305-.35037899-.0485281-.71251694-.316-.95000001-.2674719-.23748306-.6413218-.31423189-.9807241-.20133596l-1.684.565v-1.613c0-.55228475-.44771525-1-1-1z"/><path id="Shape" d="m53.684 52.052-1.684.561v-1.613c0-.5522847-.4477153-1-1-1s-1 .4477153-1 1v1.613l-1.684-.561c-.3394023-.1128959-.7132522-.0361471-.9807241.201336-.2674719.237483-.3879304.599621-.316.95s.3253218.6357681.6647241.748664l1.758.586-1.274 1.911c-.306518.4595009-.1825009 1.080482.277 1.387s1.080482.1825009 1.387-.277l1.168-1.759 1.168 1.752c.306518.4595009.9274991.583518 1.387.277s.583518-.9274991.277-1.387l-1.274-1.911 1.758-.586c.5246705-.174522.808522-.7413295.634-1.266s-.7413295-.808522-1.266-.634z"/></g></g></svg>