<?xml version="1.0" ?><svg enable-background="new 0 0 32 32" height="32px" id="svg2" version="1.1" viewBox="0 0 32 32" width="32px" xml:space="preserve" xmlns="http://www.w3.org/2000/svg" xmlns:cc="http://creativecommons.org/ns#" xmlns:dc="http://purl.org/dc/elements/1.1/" xmlns:inkscape="http://www.inkscape.org/namespaces/inkscape" xmlns:rdf="http://www.w3.org/1999/02/22-rdf-syntax-ns#" xmlns:sodipodi="http://sodipodi.sourceforge.net/DTD/sodipodi-0.dtd" xmlns:svg="http://www.w3.org/2000/svg"><g id="background"><rect fill="none" height="32" width="32"/></g><g id="user_x5F_profile_x5F_edit"><path d="M12.001,18c2.209,0,4-1.791,4-4s-1.791-4-4-4s-4,1.791-4,4S9.792,18,12.001,18z M24.001,14.059V5.584L18.415,0H0.001v32h24   v-0.06C28.5,31.442,32,27.633,32,23S28.5,14.557,24.001,14.059z M17.999,2.413L21.587,6h-3.588V2.413z M2.001,30V1.998h14v6.001h6   v6.06c-3.477,0.385-6.348,2.75-7.477,5.941c-3.562,0-8.523,0-8.523,0s-2,0-2,2c0,1,0,6,0,6h11.518c0.506,0.756,1.125,1.43,1.832,2   H2.001z M23.001,29.999c-3.865-0.008-6.994-3.135-7-6.999c0.006-3.865,3.135-6.994,7-7c3.864,0.006,6.991,3.135,6.999,7   C29.992,26.864,26.865,29.991,23.001,29.999z"/><polygon points="22,27 19,27 19,24  "/><rect height="4.243" transform="matrix(-0.7071 0.7071 -0.7071 -0.7071 56.5269 20.5858)" width="7.071" x="20.464" y="19.879"/></g></svg>
