<?xml version="1.0" ?><!DOCTYPE svg  PUBLIC '-//W3C//DTD SVG 1.1//EN'  'http://www.w3.org/Graphics/SVG/1.1/DTD/svg11.dtd'><svg enable-background="new 0 0 50 50" height="50px" id="Layer_1" version="1.1" viewBox="0 0 50 50" width="50px" xml:space="preserve" xmlns="http://www.w3.org/2000/svg" xmlns:xlink="http://www.w3.org/1999/xlink"><rect fill="none" height="44" stroke="#000000" stroke-linecap="round" stroke-miterlimit="10" stroke-width="2" width="48" x="1" y="3"/><rect fill="none" height="50" width="50"/><line fill="none" stroke="#000000" stroke-miterlimit="10" stroke-width="2" x1="9" x2="42" y1="25" y2="25"/><line fill="none" stroke="#000000" stroke-miterlimit="10" stroke-width="2" x1="43" x2="48" y1="8" y2="8"/><line fill="none" stroke="#000000" stroke-miterlimit="10" stroke-width="2" x1="43" x2="48" y1="13" y2="13"/><line fill="none" stroke="#000000" stroke-miterlimit="10" stroke-width="2" x1="43" x2="48" y1="18" y2="18"/><line fill="none" stroke="#000000" stroke-miterlimit="10" stroke-width="2" x1="43" x2="48" y1="23" y2="23"/><line fill="none" stroke="#000000" stroke-miterlimit="10" stroke-width="2" x1="43" x2="48" y1="28" y2="28"/><line fill="none" stroke="#000000" stroke-miterlimit="10" stroke-width="2" x1="43" x2="48" y1="33" y2="33"/><line fill="none" stroke="#000000" stroke-miterlimit="10" stroke-width="2" x1="43" x2="48" y1="38" y2="38"/><line fill="none" stroke="#000000" stroke-miterlimit="10" stroke-width="2" x1="43" x2="48" y1="43" y2="43"/><rect height="44" width="2" x="47" y="3"/><rect height="44" width="3" x="40" y="3"/><line fill="none" stroke="#000000" stroke-miterlimit="10" stroke-width="2" x1="7" x2="2" y1="8" y2="8"/><line fill="none" stroke="#000000" stroke-miterlimit="10" stroke-width="2" x1="7" x2="2" y1="13" y2="13"/><line fill="none" stroke="#000000" stroke-miterlimit="10" stroke-width="2" x1="7" x2="2" y1="18" y2="18"/><line fill="none" stroke="#000000" stroke-miterlimit="10" stroke-width="2" x1="7" x2="2" y1="23" y2="23"/><line fill="none" stroke="#000000" stroke-miterlimit="10" stroke-width="2" x1="7" x2="2" y1="28" y2="28"/><line fill="none" stroke="#000000" stroke-miterlimit="10" stroke-width="2" x1="7" x2="2" y1="33" y2="33"/><line fill="none" stroke="#000000" stroke-miterlimit="10" stroke-width="2" x1="7" x2="2" y1="38" y2="38"/><line fill="none" stroke="#000000" stroke-miterlimit="10" stroke-width="2" x1="7" x2="2" y1="43" y2="43"/><rect height="44" width="2" x="1" y="3"/><rect height="44" width="3" x="7" y="3"/></svg>