<?xml version="1.0" ?><svg height="23px" version="1.1" viewBox="0 0 19 23" width="19px" xmlns="http://www.w3.org/2000/svg" xmlns:sketch="http://www.bohemiancoding.com/sketch/ns" xmlns:xlink="http://www.w3.org/1999/xlink"><title/><defs><path d="M0.501203573,1.91852455 C0.501203573,1.91852455 7.17230047e-07,1.91852455 0,2.91852455 C-4.1525821e-07,3.91852455 0.501203573,3.91852455 0.501203573,3.91852455 L18.4987964,3.91852455 C18.4987964,3.91852455 19,3.91852455 19,2.91852455 C18.9999995,1.91852455 18.4987964,1.91852455 18.4987964,1.91852455 L0.501203573,1.91852455 L0.501203573,1.91852455 Z M0.973754885,4.91852455 L17.9737549,4.91852455 L15.9737549,22.9185245 L2.97375489,22.9185245 L0.973754885,4.91852455 Z M7.9737549,0.918524548 C6.9737549,0.918524548 6.9737549,1.91852455 6.9737549,1.91852455 L11.9737549,1.91852455 C11.9737549,1.91852455 11.9737549,0.918524548 10.9737549,0.918524548 L7.9737549,0.918524548 L7.9737549,0.918524548 Z M5.9737549,20.9185245 L6.9737549,20.9185245 L5.9737549,4.88141517 L4.97375489,4.88141517 L5.9737549,20.9185245 Z M12.9737549,4.88141517 L11.9737549,20.9185245 L12.9737549,20.9185245 L13.9737549,4.88141517 L12.9737549,4.88141517 L12.9737549,4.88141517 Z M8.9737549,4.88141517 L8.9737549,20.9185245 L9.9737549,20.9185245 L9.9737549,4.88141517 L8.9737549,4.88141517 L8.9737549,4.88141517 Z" id="path-1"/></defs><g fill="none" fill-rule="evenodd" id="miu" stroke="none" stroke-width="1"><g id="editor_trash_delete_recycle_bin_glyph"><use fill="#000000" fill-rule="evenodd" xlink:href="#path-1"/><use fill="none" xlink:href="#path-1"/></g></g></svg>
