<?xml version="1.0" ?><svg height="16px" version="1.1" viewBox="0 0 22 16" width="22px" xmlns="http://www.w3.org/2000/svg" xmlns:sketch="http://www.bohemiancoding.com/sketch/ns" xmlns:xlink="http://www.w3.org/1999/xlink"><title/><defs/><g fill="none" fill-rule="evenodd" id="miu" stroke="none" stroke-width="1"><path d="M2,2 C2,2 0,2 0,3.99999999 L0,14 C0,16 2,16 2,16 L20,16 C20,16 22,16 22,14 L22,3.99999999 C22,2 20,2 20,2 L2,2 L2,2 Z M11.5,13 C13.9852815,13 16,10.9852815 16,8.5 C16,6.01471851 13.9852815,4 11.5,4 C9.01471851,4 7,6.01471851 7,8.5 C7,10.9852815 9.01471851,13 11.5,13 L11.5,13 Z M11.5,12 C13.4329967,12 15,10.4329967 15,8.5 C15,6.56700329 13.4329967,5 11.5,5 C9.56700329,5 8,6.56700329 8,8.5 C8,10.4329967 9.56700329,12 11.5,12 L11.5,12 Z M17,6 C17.5522848,6 18,5.55228477 18,5 C18,4.44771523 17.5522848,4 17,4 C16.4477152,4 16,4.44771523 16,5 C16,5.55228477 16.4477152,6 17,6 L17,6 Z M7,2 L16,2 L15,0 L8.00000001,0 L7,2 Z M4.22167658,0 C4.099248,0 4,0.08874333 4,0.199961498 L4,0.800038502 C4,0.910474188 4.09918031,1 4.22167658,1 L5.77832342,1 C5.900752,1 6,0.91125667 6,0.800038502 L6,0.199961498 C6,0.089525812 5.90081969,0 5.77832342,0 L4.22167658,0 L4.22167658,0 Z" fill="#000000" id="device_camera_capture_photo_glyph"/></g></svg>
