<svg height="512" viewBox="0 0 56 58" width="512" xmlns="http://www.w3.org/2000/svg"><g id="Page-1" fill="none" fill-rule="evenodd"><g id="046---Photos" fill="rgb(0,0,0)" fill-rule="nonzero"><circle id="Oval" cx="26" cy="31" r="1"/><path id="Shape" d="m0 57c0 .5522847.44771525 1 1 1h38c.5522847 0 1-.4477153 1-1v-5h-40zm33-3h4c.5522847 0 1 .4477153 1 1s-.4477153 1-1 1h-4c-.5522847 0-1-.4477153-1-1s.4477153-1 1-1zm-19 0h2c.5522847 0 1 .4477153 1 1s-.4477153 1-1 1h-2c-.5522847 0-1-.4477153-1-1s.4477153-1 1-1zm-11 0h7c.5522847 0 1 .4477153 1 1s-.4477153 1-1 1h-7c-.55228475 0-1-.4477153-1-1s.44771525-1 1-1z"/><path id="Shape" d="m50.12 44.88.82-4.94-8.94-1.47v2.02l5.65.94c.4975152.0993426.8418026.5554988.8009389 1.061187s-.4539278.9006443-.9609389.918813c-.0568503.001657-.1137361-.0016893-.17-.01l-5.32-.88v2.02l6.97 1.15c.2600036.0458155.5275449-.013902.743388-.1659306s.3621805-.3838257.406612-.6440694z"/><circle id="Oval" cx="14" cy="31" r="1"/><path id="Shape" d="m42 36.44 9.26 1.53 4.72-28.61c.0458155-.26000365-.013902-.52754488-.1659306-.74338801-.1520286-.21584312-.3838257-.36218053-.6440694-.40661199l-37.5-6.19c-.2626659-.04556976-.5326543.01562762-.75.17-.2168812.14809067-.3619226.38015691-.4.64l-1.84 11.17h24.32c1.6548028.0049422 2.9950578 1.3451972 3 3z"/><path id="Shape" d="m39 16h-38c-.55228475 0-1 .4477153-1 1v33h40v-33c0-.5522847-.4477153-1-1-1zm-19 32c-8.2842712 0-15-6.7157288-15-15s6.7157288-15 15-15 15 6.7157288 15 15c-.0099183 8.2801595-6.7198405 14.9900817-15 15z"/><path id="Shape" d="m20 20c-6.1683779.0079862-11.48587618 4.3404534-12.74 10.38-.17310869.8625844-.26020198 1.7402168-.26 2.62 0 7.1797017 5.8202983 13 13 13s13-5.8202983 13-13c.000202-.8797832-.0868913-1.7574156-.26-2.62-1.2541238-6.0395466-6.5716221-10.3720138-12.74-10.38zm-9 11c0-.1.01-.2.02-.3.1877913-1.5911152 1.6097161-2.7424886 3.2050958-2.5952582 1.5953798.1472304 2.7825736 1.5393875 2.6759996 3.1379979s-1.4680614 2.8208554-3.0688666 2.7550068c-1.6008051-.0658486-2.8573093-1.3957839-2.8322288-2.9977465zm9 10c-3.16 0-4-1.96-4-3 .0032877-.3316755.1673344-.6411273.44-.83.1648545-.112674.3603293-.1720145.56-.17.5445676-.0001089.9891087.4355413 1 .98.01.18.17 1.02 2 1.02s1.99-.86 2-1.03c.0334512-.529524.4694575-.94373 1-.95h.03c.5359674.0086889.9668085.4439717.97.98 0 1.04-.84 3-4 3zm6-7c-1.5786759-.0003222-2.8869943-1.2240647-2.9926601-2.7992004-.1056657-1.5751357 1.0274794-2.9626604 2.5919672-3.1738374s3.0249577.8262576 3.3406929 2.3730378c.0407448.1973794.0608529.3984609.06.6-.0049422 1.6548028-1.3451972 2.9950578-3 3z"/><path id="Shape" d="m1.684 3.948 1.758.586-1.274 1.911c-.30651804.45950091-.18250091 1.08048196.277 1.387s1.08048196.18250091 1.387-.277l1.168-1.755 1.168 1.755c.30651804.4595009.92749908.58351802 1.38699999.27699999.45950091-.30651804.58351804-.92749908.27700001-1.38699999l-1.274-1.911 1.758-.586c.33940232-.11289592.59279373-.39828504.66472415-.74866403.07193041-.35037899-.04852811-.71251694-.31600001-.95000001-.2674719-.23748306-.64132183-.31423189-.98072414-.20133596l-1.684.565v-1.613c0-.55228475-.44771525-1-1-1s-1 .44771525-1 1v1.613l-1.684-.561c-.52467051-.17452197-1.09147801.1093295-1.26599999.634-.17452197.52467051.10932949 1.09147801.63399999 1.266z"/><path id="Shape" d="m51.684 52.052-1.684.561v-1.613c0-.5522847-.4477153-1-1-1s-1 .4477153-1 1v1.613l-1.684-.561c-.3394023-.1128959-.7132522-.0361471-.9807241.201336-.2674719.237483-.3879304.599621-.316.95s.3253218.6357681.6647241.748664l1.758.586-1.274 1.911c-.306518.4595009-.1825009 1.080482.277 1.387s1.080482.1825009 1.387-.277l1.168-1.759 1.168 1.752c.306518.4595009.9274991.583518 1.387.277s.583518-.9274991.277-1.387l-1.274-1.911 1.758-.586c.5246705-.174522.808522-.7413295.634-1.266s-.7413295-.808522-1.266-.634z"/></g></g></svg>