<?xml version="1.0" ?><svg height="22px" version="1.1" viewBox="0 0 17 22" width="17px" xmlns="http://www.w3.org/2000/svg" xmlns:sketch="http://www.bohemiancoding.com/sketch/ns" xmlns:xlink="http://www.w3.org/1999/xlink"><title/><defs><path d="M9.03092146,19 L11.1328134,21.9934082 L12.1420898,21.9934082 L10.0401979,19 L16.5,19 C16.5,19 17,19.0891089 17,18.5445545 C16.9999996,18 16.5,18 16.5,18 L0.499999999,18 C0.499999999,18 6.41732146e-07,18 0,18.5445545 C-2.85699201e-07,19.0891089 0.5,19 0.5,19 L7.62213976,19 L5.51871322,21.9934082 L6.52798966,21.9934082 L8.6314162,19 L9.03092146,19 Z M2,3 C2,3 0,3 0,4.99999999 L0,15 C0,17 2,17 2,17 L15,17 C15,17 17,17 17,15 L17,4.99999999 C17,3 15,3 15,3 L2,3 L2,3 Z M2,4 C2,4 1,4 1,5 L1,15 C1,16 2,16 2,16 L15,16 C15,16 16,16 16,15 L16,5 C16,4 15,4 15,4 L2,4 L2,4 Z M9,1 L9.05194805,0 L8,0 L8.00000002,1 L7,1 L6.99999999,2 L10,2 L10,1 L9,1 Z M10,13 L10,14 L15,14 L15,13 L10,13 Z M2,5 L2,7 L15,7 L15,5 L2,5 Z M10,10 L10,11 L15,11 L15,10 L10,10 Z M5,15 C6.65685433,15 8,13.6568543 8,12 L5,12 L5,9 C3.34314567,9 2,10.3431457 2,12 C2,13.6568543 3.34314567,15 5,15 Z" id="path-1"/></defs><g fill="none" fill-rule="evenodd" id="miu" stroke="none" stroke-width="1"><g id="device_board_presentation_content_chart_outline_stroke"><use fill="#000000" fill-rule="evenodd" xlink:href="#path-1"/><use fill="none" xlink:href="#path-1"/></g></g></svg>