<?xml version="1.0" ?><svg height="20px" version="1.1" viewBox="0 0 22 20" width="22px" xmlns="http://www.w3.org/2000/svg" xmlns:sketch="http://www.bohemiancoding.com/sketch/ns" xmlns:xlink="http://www.w3.org/1999/xlink"><title/><defs><path d="M0.140487671,4 C0.0628984728,4 0,4.05793571 0,4.12879109 L0,19.8712089 C0,19.9423383 0.0631103513,20 0.140487671,20 L21.8595124,20 C21.9371015,20 22,19.9420643 22,19.8712089 L22,4.12879109 C22,4.05766174 21.9368896,4 21.8595124,4 L0.140487671,4 Z M1,5 L1,19 L21,19 L21,5 L1,5 Z M8.31146755,7.96557279 L11.5680228,13.5896033 C11.6080958,13.658809 11.694647,13.6768875 11.7588871,13.6317082 L14.5213939,11.6888683 C14.6506985,11.5979298 14.8228868,11.6296547 14.9092326,11.7648075 L19.9298551,17.6233415 C20.0147479,17.75622 19.9533678,17.8639394 19.8034742,17.8639394 L2.14722686,17.8639394 C1.99212294,17.8639394 1.92473319,17.7514312 1.99797568,17.6102003 L8.03502924,7.96915944 C8.107704,7.82902321 8.23291348,7.82991093 8.31146755,7.96557279 Z M17.5,9 C18.3284271,9 19,8.32842715 19,7.5 C19,6.67157284 18.3284271,6 17.5,6 C16.6715729,6 16,6.67157284 16,7.5 C16,8.32842715 16.6715729,9 17.5,9 Z M2,0 L2,1 L20,1 L20,0 L2,0 Z M1,2 L1,3 L21,3 L21,2 L1,2 Z" id="path-1"/></defs><g fill="none" fill-rule="evenodd" id="miu" stroke="none" stroke-width="1"><g id="editor_images_pictures_photos_collection_outline_stroke"><use fill="#000000" fill-rule="evenodd" xlink:href="#path-1"/><use fill="none" xlink:href="#path-1"/></g></g></svg>