<?xml version="1.0" ?><svg height="22px" version="1.1" viewBox="0 0 21 22" width="21px" xmlns="http://www.w3.org/2000/svg" xmlns:sketch="http://www.bohemiancoding.com/sketch/ns" xmlns:xlink="http://www.w3.org/1999/xlink"><title/><defs/><g fill="none" fill-rule="evenodd" id="miu" stroke="none" stroke-width="1"><path d="M0,1.23168018 L0,21.6053689 C0,21.77832 0.134101867,21.9185245 0.313155636,21.9185245 L20.6868444,21.9185245 C20.8597955,21.9185245 21,21.7776593 21,21.607352 L21,4.41852455 L17.5,0.918524548 L0.311172497,0.918524548 C0.139316672,0.918524548 0,1.05262642 0,1.23168018 Z M4,19.9185245 L4,12.9185245 L17,12.9185245 L17,19.9185245 L4,19.9185245 Z M6,2.91852455 L6,7.91852455 L15,7.91852455 L15,2.91852456 L6,2.91852455 Z M12,2.91852455 L12,4.91852455 L13,4.91852455 L13,2.91852455 L12,2.91852455 L12,2.91852455 Z" fill="#000000" id="editor_floopy-dish_save_glyph"/></g></svg>