<?xml version="1.0" encoding="UTF-8" standalone="no"?>
<svg
   xmlns:dc="http://purl.org/dc/elements/1.1/"
   xmlns:cc="http://creativecommons.org/ns#"
   xmlns:rdf="http://www.w3.org/1999/02/22-rdf-syntax-ns#"
   xmlns:svg="http://www.w3.org/2000/svg"
   xmlns="http://www.w3.org/2000/svg"
   xmlns:sodipodi="http://sodipodi.sourceforge.net/DTD/sodipodi-0.dtd"
   xmlns:inkscape="http://www.inkscape.org/namespaces/inkscape"
   height="22px"
   version="1.1"
   viewBox="0 0 22 22"
   width="22px"
   id="svg3358"
   inkscape:version="0.91 r13725"
   sodipodi:docname="arrowtrackright.svg">
  <metadata
     id="metadata3368">
    <rdf:RDF>
      <cc:Work
         rdf:about="">
        <dc:format>image/svg+xml</dc:format>
        <dc:type
           rdf:resource="http://purl.org/dc/dcmitype/StillImage" />
      </cc:Work>
    </rdf:RDF>
  </metadata>
  <sodipodi:namedview
     pagecolor="#ffffff"
     bordercolor="#666666"
     borderopacity="1"
     objecttolerance="10"
     gridtolerance="10"
     guidetolerance="10"
     inkscape:pageopacity="0"
     inkscape:pageshadow="2"
     inkscape:window-width="1200"
     inkscape:window-height="1001"
     id="namedview3366"
     showgrid="false"
     inkscape:zoom="38.545455"
     inkscape:cx="11"
     inkscape:cy="11"
     inkscape:window-x="200"
     inkscape:window-y="0"
     inkscape:window-maximized="0"
     inkscape:current-layer="svg3358" />
  <title
     id="title3360" />
  <defs
     id="defs3362" />
  <g
     fill="none"
     fill-rule="evenodd"
     id="miu"
     stroke="none"
     stroke-width="1">
    <path
       d="M0,11 C0,4.92486745 4.92486745,0 11,0 C17.0751325,0 22,4.92486745 22,11 C22,17.0751325 17.0751325,22 11,22 C4.92486745,22 0,17.0751325 0,11 Z M21,11 C21,5.47715223 16.5228478,1 11,1 C5.47715223,1 1,5.47715223 1,11 C1,16.5228478 5.47715223,21 11,21 C16.5228478,21 21,16.5228478 21,11 Z M12.1454356,11.4205619 L8.25634833,15.3096492 L9.6767767,16.7300776 L14.9800776,11.4267767 L9.3232233,5.76992245 L7.90900974,7.18413601 L12.1454356,11.4205619 Z"
       fill="#000000"
       id="circle_next_arrow_disclosure_outline_stroke" />
  </g>
  <rect
     style="fill:#0000ff;fill-rule:evenodd;stroke:#000000;stroke-width:0.97307026px;stroke-linecap:butt;stroke-linejoin:miter;stroke-opacity:1"
     id="rect3372"
     width="0.33825049"
     height="10.196742"
     x="15.500686"
     y="6.187007" />
</svg>
