<?xml version="1.0" ?><svg height="22px" version="1.1" viewBox="0 0 22 22" width="22px" xmlns="http://www.w3.org/2000/svg" xmlns:sketch="http://www.bohemiancoding.com/sketch/ns" xmlns:xlink="http://www.w3.org/1999/xlink"><title/><defs/><g fill="none" fill-rule="evenodd" id="miu" stroke="none" stroke-width="1"><path d="M0,11 C0,4.92486745 4.92486745,0 11,0 C17.0751325,0 22,4.92486745 22,11 C22,17.0751325 17.0751325,22 11,22 C4.92486745,22 0,17.0751325 0,11 Z M21,11 C21,5.47715223 16.5228478,1 11,1 C5.47715223,1 1,5.47715223 1,11 C1,16.5228478 5.47715223,21 11,21 C16.5228478,21 21,16.5228478 21,11 Z M12.1454356,11.4205619 L8.25634833,15.3096492 L9.6767767,16.7300776 L14.9800776,11.4267767 L9.3232233,5.76992245 L7.90900974,7.18413601 L12.1454356,11.4205619 Z" fill="#000000" id="circle_next_arrow_disclosure_outline_stroke"/></g></svg>