<?xml version="1.0" encoding="UTF-8" standalone="no"?>
<svg
   xmlns:dc="http://purl.org/dc/elements/1.1/"
   xmlns:cc="http://creativecommons.org/ns#"
   xmlns:rdf="http://www.w3.org/1999/02/22-rdf-syntax-ns#"
   xmlns:svg="http://www.w3.org/2000/svg"
   xmlns="http://www.w3.org/2000/svg"
   xmlns:sodipodi="http://sodipodi.sourceforge.net/DTD/sodipodi-0.dtd"
   xmlns:inkscape="http://www.inkscape.org/namespaces/inkscape"
   height="22px"
   version="1.1"
   viewBox="0 0 22 22"
   width="22px"
   id="svg3358"
   inkscape:version="0.91 r13725"
   sodipodi:docname="arrowtrackleft.svg">
  <metadata
     id="metadata3368">
    <rdf:RDF>
      <cc:Work
         rdf:about="">
        <dc:format>image/svg+xml</dc:format>
        <dc:type
           rdf:resource="http://purl.org/dc/dcmitype/StillImage" />
      </cc:Work>
    </rdf:RDF>
  </metadata>
  <sodipodi:namedview
     pagecolor="#ffffff"
     bordercolor="#666666"
     borderopacity="1"
     objecttolerance="10"
     gridtolerance="10"
     guidetolerance="10"
     inkscape:pageopacity="0"
     inkscape:pageshadow="2"
     inkscape:window-width="1200"
     inkscape:window-height="1001"
     id="namedview3366"
     showgrid="false"
     inkscape:zoom="38.545455"
     inkscape:cx="11.523548"
     inkscape:cy="10.699601"
     inkscape:window-x="200"
     inkscape:window-y="0"
     inkscape:window-maximized="0"
     inkscape:current-layer="svg3358" />
  <title
     id="title3360" />
  <defs
     id="defs3362" />
  <g
     id="miu"
     transform="matrix(-1,0,0,-1,22,22)"
     style="fill:none;fill-rule:evenodd;stroke:none;stroke-width:1">
    <path
       d="M 0,11 C 0,4.9248674 4.9248674,0 11,0 17.075132,0 22,4.9248674 22,11 22,17.075132 17.075132,22 11,22 4.9248674,22 0,17.075132 0,11 Z m 21,0 C 21,5.4771522 16.522848,1 11,1 5.4771522,1 1,5.4771522 1,11 1,16.522848 5.4771522,21 11,21 16.522848,21 21,16.522848 21,11 Z M 12.145436,11.420562 8.2563483,15.309649 9.6767767,16.730078 14.980078,11.426777 9.3232233,5.7699224 7.9090097,7.184136 12.145436,11.420562 Z"
       id="circle_next_arrow_disclosure_outline_stroke"
       inkscape:connector-curvature="0"
       style="fill:#000000" />
  </g>
  <rect
     style="fill:#0000ff;fill-rule:evenodd;stroke:#000000;stroke-width:0.97307026px;stroke-linecap:butt;stroke-linejoin:miter;stroke-opacity:1"
     id="rect3372"
     width="0.33825049"
     height="10.196742"
     x="6.1870074"
     y="5.6917238" />
</svg>
