<?xml version="1.0" ?><svg version="1.1" viewBox="2.54312999459216E-06 -0.616012990474701 149.949002583823 149.949005544186" xmlns="http://www.w3.org/2000/svg" xmlns:xlink="http://www.w3.org/1999/xlink"><defs><linearGradient id="def0" x1="0.500003" x2="0.500003" y1="1" y2="7.9546E-06"><stop offset="0" stop-color="#B8DAFF"/><stop offset="0.00561806" stop-color="#B8DAFF"/><stop offset="1" stop-color="#F6F9FF"/></linearGradient></defs><g><path d="M149.949,74.3587C149.949,115.765 116.381,149.333 74.9747,149.333 33.5667,149.333 2.54313E-06,115.765 2.54313E-06,74.3587 2.54313E-06,32.9507 33.5667,-0.616013 74.9747,-0.616013 116.381,-0.616013 149.949,32.9507 149.949,74.3587z" fill="#77A1C9"/><path d="M74.9747,148C34.368,148 1.33334,114.965 1.33334,74.3587 1.33334,33.752 34.368,0.717316 74.9747,0.717316 115.581,0.717316 148.616,33.752 148.616,74.3587 148.616,114.965 115.581,148 74.9747,148z" fill="#FFFFFF"/><path d="M3.9996,74.3583C3.9996,113.494,35.8396,145.333,74.9756,145.333L74.9756,145.333C114.11,145.333,145.949,113.494,145.949,74.3583L145.949,74.3583C145.949,35.2236,114.11,3.38359,74.9756,3.38359L74.9756,3.38359C35.8396,3.38359,3.9996,35.2236,3.9996,74.3583z" fill="url(#def0)"/></g></svg>