<?xml version="1.0" encoding="iso-8859-1"?>
<!-- Generator: Adobe Illustrator 18.1.1, SVG Export Plug-In . SVG Version: 6.00 Build 0)  -->
<svg version="1.1" id="Capa_1" xmlns="http://www.w3.org/2000/svg" xmlns:xlink="http://www.w3.org/1999/xlink" x="0px" y="0px"
	 viewBox="0 0 27.423 27.423" style="enable-background:new 0 0 27.423 27.423;" xml:space="preserve">
<g>
	<path d="M23.641,24.113H0.467C0.207,24.113,0,23.904,0,23.648V7.097C0,6.841,0.207,6.63,0.467,6.63h10.369
		c0.219,0,0.41,0.158,0.451,0.377c0.047,0.217-0.072,0.432-0.273,0.52l-0.076,0.027c-0.105,0.047-0.215,0.094-0.326,0.143
		c-1.755,0.779-3.2,1.799-4.305,3.021c-0.09,0.096-0.213,0.154-0.346,0.154H4.242v8.998h15.625v-2.297
		c0-0.152,0.074-0.299,0.203-0.387l3.312-2.23c0.141-0.094,0.326-0.104,0.477-0.023c0.152,0.082,0.246,0.238,0.246,0.41v8.305
		C24.105,23.904,23.898,24.113,23.641,24.113z"/>
	<path d="M17.043,17.589c-0.074,0-0.152-0.016-0.221-0.051c-0.15-0.08-0.244-0.24-0.244-0.41v-3.875
		c-1.568,0.008-2.857,0.078-3.939,0.205c-5.172,0.617-6.553,3.719-6.609,3.85c-0.086,0.205-0.303,0.32-0.52,0.275
		c-0.215-0.045-0.373-0.234-0.373-0.455c0-7.822,9.307-9.477,11.436-9.752V3.775c0-0.168,0.094-0.33,0.248-0.408
		c0.15-0.082,0.334-0.074,0.477,0.023l9.92,6.676c0.129,0.088,0.205,0.232,0.205,0.387c0,0.155-0.076,0.299-0.205,0.383
		l-9.914,6.678C17.223,17.564,17.135,17.589,17.043,17.589z"/>
	<g>
	</g>
	<g>
	</g>
	<g>
	</g>
	<g>
	</g>
	<g>
	</g>
	<g>
	</g>
	<g>
	</g>
	<g>
	</g>
	<g>
	</g>
	<g>
	</g>
	<g>
	</g>
	<g>
	</g>
	<g>
	</g>
	<g>
	</g>
	<g>
	</g>
</g>
<g>
</g>
<g>
</g>
<g>
</g>
<g>
</g>
<g>
</g>
<g>
</g>
<g>
</g>
<g>
</g>
<g>
</g>
<g>
</g>
<g>
</g>
<g>
</g>
<g>
</g>
<g>
</g>
<g>
</g>
</svg>
