<?xml version="1.0" encoding="UTF-8"?>
<!-- Generator: Adobe Illustrator 15.0.2, SVG Export Plug-In . SVG Version: 6.00 Build 0)  -->
<!DOCTYPE svg PUBLIC "-//W3C//DTD SVG 1.1//EN" "http://www.w3.org/Graphics/SVG/1.1/DTD/svg11.dtd">
<svg xmlns="http://www.w3.org/2000/svg" xmlns:xlink="http://www.w3.org/1999/xlink" version="1.1" id="Layer_1" x="0px" y="0px" width="512px" height="551.385px" viewBox="0 0 512 551.385" enable-background="new 0 0 512 551.385" xml:space="preserve">
<path d="M0,262.564L512,0v262.564H0z M164.103,223.18h308.513V72.205L164.103,223.18z M0,288.82h92.948l46.354,23.615  l-26.674,34.142L0,288.82z M393.846,288.82v39.385h-52.513V288.82H393.846z M279.186,328.205L203.23,288.82h98.719v39.385H279.186z   M262.73,376.462l-26.263,33.615l-78.48-40.231l25.225-32.281L262.73,376.462z M384.27,435.949L356.41,471.59l-74.583-38.244  l26.865-34.384L384.27,435.949z M512,288.82v39.385h-78.77V288.82H512z M512,551.385l-110.23-56.525l28.461-36.424l42.385,20.744  v-19.692H512V551.385z M472.615,367.59H512v52.513h-39.385V367.59z" fill="#000000"/>
</svg>
