<?xml version="1.0" encoding="UTF-8"?>
<!-- Generator: Adobe Illustrator 15.0.2, SVG Export Plug-In . SVG Version: 6.00 Build 0)  -->
<!DOCTYPE svg PUBLIC "-//W3C//DTD SVG 1.1//EN" "http://www.w3.org/Graphics/SVG/1.1/DTD/svg11.dtd">
<svg xmlns="http://www.w3.org/2000/svg" xmlns:xlink="http://www.w3.org/1999/xlink" version="1.1" id="Layer_1" x="0px" y="0px" width="512px" height="475.429px" viewBox="0 0 512 475.429" enable-background="new 0 0 512 475.429" xml:space="preserve">
<path d="M268.19,0L512,475.429H268.19V0z M304.762,152.381v286.477h140.19L304.762,152.381z M243.81,0v86.31l-21.929,43.042  l-31.702-24.769L243.81,0z M243.81,365.714h-36.571v-48.762h36.571V365.714z M207.238,259.244l36.571-70.53v91.667h-36.571V259.244z   M162.423,243.964l-31.215-24.387l37.369-72.875l29.977,23.423L162.423,243.964z M107.19,356.821l-33.102-25.869l35.519-69.256  l31.929,24.946L107.19,356.821z M243.81,475.429h-36.571v-73.143h36.571V475.429z M0,475.429l52.488-102.357L86.304,399.5  l-19.256,39.357h18.285v36.571H0z M170.667,438.857v36.571h-48.763v-36.571H170.667z" fill="#000000"/>
</svg>
