<?xml version="1.0" ?><!DOCTYPE svg  PUBLIC '-//W3C//DTD SVG 1.1//EN'  'http://www.w3.org/Graphics/SVG/1.1/DTD/svg11.dtd'><svg enable-background="new 0 0 500 500" height="500px" id="Layer_1" version="1.1" viewBox="0 0 500 500" width="500px" xml:space="preserve" xmlns="http://www.w3.org/2000/svg" xmlns:xlink="http://www.w3.org/1999/xlink"><g><g><path d="M324.691,141h-149.54C157.716,141,144,155.135,144,173.138v154.416C144,345.557,157.716,360,175.151,360h149.54     C342.126,360,356,345.557,356,327.554V173.138C356,155.135,342.126,141,324.691,141z M338,327.554     c0,7.413-6.13,13.446-13.309,13.446h-149.54c-7.179,0-13.151-6.033-13.151-13.446V173.138c0-7.413,5.972-13.138,13.151-13.138     h149.54c7.179,0,13.309,5.725,13.309,13.138V327.554z"/><path d="M302.883,219h-69.443c-5.136,0-9.3,3.696-9.3,9s4.163,9,9.3,9h69.443c5.136,0,9.3-3.696,9.3-9S308.019,219,302.883,219z"/><ellipse cx="198.892" cy="228.036" rx="9.3" ry="9.603"/><path d="M302.883,256h-69.443c-5.136,0-9.3,4.197-9.3,9.5c0,5.303,4.163,9.5,9.3,9.5h69.443c5.136,0,9.3-4.197,9.3-9.5     C312.183,260.197,308.019,256,302.883,256z"/><ellipse cx="198.892" cy="265.807" rx="9.3" ry="9.603"/><path d="M302.883,294h-69.443c-5.136,0-9.3,4.197-9.3,9.5s4.163,9.5,9.3,9.5h69.443c5.136,0,9.3-4.197,9.3-9.5     S308.019,294,302.883,294z"/><ellipse cx="198.892" cy="303.579" rx="9.3" ry="9.603"/><path d="M302.883,181H194.8c-5.136,0-9.3,4.196-9.3,9.5c0,5.304,4.163,9.5,9.3,9.5h108.084c5.136,0,9.3-4.196,9.3-9.5     C312.183,185.196,308.019,181,302.883,181z"/></g></g></svg>