<?xml version="1.0" ?><svg height="22px" version="1.1" viewBox="0 0 22 22" width="22px" xmlns="http://www.w3.org/2000/svg" xmlns:sketch="http://www.bohemiancoding.com/sketch/ns" xmlns:xlink="http://www.w3.org/1999/xlink"><title/><defs><path d="M0,11 C0,4.92486745 4.92486745,0 11,0 C17.0751325,0 22,4.92486745 22,11 C22,17.0751325 17.0751325,22 11,22 C4.92486745,22 0,17.0751325 0,11 L0,11 Z M21,11 C21,5.47715225 16.5228478,1 11,1 C5.47715225,1 1,5.47715225 1,11 C1,16.5228478 5.47715225,21 11,21 C16.5228478,21 21,16.5228478 21,11 L21,11 Z M11.25,7.5 C11.940356,7.5 12.5,6.94035595 12.5,6.25 C12.5,5.55964405 11.940356,5 11.25,5 C10.559644,5 10,5.55964405 10,6.25 C10,6.94035595 10.559644,7.5 11.25,7.5 L11.25,7.5 Z M8.5,8.5 L8.5,9.5 L10,9.5 L10,16.5 L8.5,16.5 L8.5,17.5 L14,17.5 L14,16.5 L12.5,16.5 L12.5,8.5 L8.5,8.5 L8.5,8.5 Z" id="path-1"/></defs><g fill="none" fill-rule="evenodd" id="miu" stroke="none" stroke-width="1"><g id="circle_info_more-information_detail_outline_stroke"><use fill="#000000" fill-rule="evenodd" xlink:href="#path-1"/><use fill="none" xlink:href="#path-1"/></g></g></svg>