<?xml version="1.0" ?><svg height="22px" version="1.1" viewBox="0 0 15 22" width="15px" xmlns="http://www.w3.org/2000/svg" xmlns:sketch="http://www.bohemiancoding.com/sketch/ns" xmlns:xlink="http://www.w3.org/1999/xlink"><title/><defs/><g fill="none" fill-rule="evenodd" id="miu" stroke="none" stroke-width="1"><path d="M7.5,22 C7.5,22 15,12.1277183 15,7.8128179 C15,3.49791751 12.5187988,-1.09762448e-06 7.5,0 C2.48120117,1.11146572e-06 0,3.49791751 0,7.8128179 C0,12.1277183 7.5,22 7.5,22 L7.5,22 Z M7.5,10.5 C9.7091391,10.5 11.5,8.7091391 11.5,6.5 C11.5,4.29086089 9.7091391,2.5 7.5,2.5 C5.2908609,2.5 3.5,4.29086089 3.5,6.5 C3.5,8.7091391 5.2908609,10.5 7.5,10.5 L7.5,10.5 Z" fill="#000000" id="map_location_pin_map-marker_glyph"/></g></svg>