<svg height="480pt" viewBox="0 -40 480 480" width="480pt" xmlns="http://www.w3.org/2000/svg"><path d="m472 255.992188h-408v-33.519532l411.136719-175.109375c2.023437-.871093 3.601562-2.535156 4.359375-4.605469.757812-2.070312.628906-4.363281-.359375-6.332031l-16-32c-1.890625-3.785156-6.402344-5.445312-10.296875-3.785156l-432 184c-2.9375 1.265625-4.839844 4.15625-4.839844 7.351563v64h-8c-4.417969 0-8 3.582031-8 8v96c0 4.417968 3.582031 8 8 8h8v24c0 4.417968 3.582031 8 8 8h432c4.417969 0 8-3.582032 8-8v-24h8c4.417969 0 8-3.582032 8-8v-96c0-4.417969-3.582031-8-8-8zm-440-58.703126 420.207031-178.984374 8.800781 17.664062-404.207031 172.191406c-.265625-.070312-.53125-.128906-.800781-.167968h-24zm0 26.703126h16v32h-16zm416 160h-416v-16h416zm16-32h-448v-80h448zm0 0"/><path d="m424 335.992188c13.253906 0 24-10.742188 24-24 0-13.253907-10.746094-24-24-24s-24 10.746093-24 24c0 13.257812 10.746094 24 24 24zm0-32c4.417969 0 8 3.582031 8 8 0 4.417968-3.582031 8-8 8s-8-3.582032-8-8c0-4.417969 3.582031-8 8-8zm0 0"/><path d="m32 288h16v48h-16zm0 0"/><path d="m64 288h16v48h-16zm0 0"/><path d="m280 168h16v56h-16zm0 0"/><path d="m312 144h16v64h-16zm0 0"/></svg>