<?xml version="1.0" ?><!DOCTYPE svg  PUBLIC '-//W3C//DTD SVG 1.1//EN'  'http://www.w3.org/Graphics/SVG/1.1/DTD/svg11.dtd'><svg enable-background="new 0 0 24 24" height="24px" id="Layer_1" version="1.1" viewBox="0 0 24 24" width="24px" xml:space="preserve" xmlns="http://www.w3.org/2000/svg" xmlns:xlink="http://www.w3.org/1999/xlink"><g><path d="M7,17h3V7H7V17z M8,8h1v8H8V8z"/><path d="M17,18V6l-6,6L17,18z M16,15.6L12.4,12L16,8.4V15.6z"/><path d="M11.9,0c-6.6,0-12,5.4-12,12s5.4,12,12,12s12-5.4,12-12S18.5,0,11.9,0z M11.9,22c-5.5,0-10-4.5-10-10s4.5-10,10-10   s10,4.5,10,10S17.4,22,11.9,22z"/></g></svg>