/* XPM */
static char * logoregard[] = {
"32 32 14 1",
"  c #B2B2B2",
". c #F1F1F1",
"X c #DDDDDD",
"o c #161616",
"O c #FFFFFF",
"+ c #000000",
"@ c #CCCCCC",
"# c #C0C0C0",
"$ c #999999",
"% c #868686",
"& c #777777",
"* c #666666",
"= c #555555",
"- c #424242",
" .XXXXXXXXXXXXXXXXXXXXXXXXXXXXX.",
"oXO.OOOOOOOOOOOOOOOOOOOOOOOOOO.X",
"+@OOOOOOOOOO..XXXXX.OOOOOOOOOOOX",
"+#OOOOOOOO.X@@@@## #@.OOOOOOOOOX",
"+#OOOOOO.X@###    #@@@XOOOOOOOOX",
"+#OOOOOX@# $ $ ##@@XXXXXOOOOOOOX",
"+#OOOOX@@@@@@##@XXXXXXX@XOOOOOOX",
"+#OOOXXXXXXXXXX@@@XXXXXX@XOOOOOX",
"+#OO.#XX@@@@XXXX@@@XXX@X@@XOOOOX",
"+#OO @XX%$$$$#XX###@@@@@@@@OOOOX",
"+#OX%@X@$$%%%&XX#$ #XOOO.@#XOOOX",
"+#O#$XX@$%&%&*XX &%.OOOOOO##OOOX",
"+#O  XX#%&*&* XX&=#OO $#OOX XO.X",
"+#.##XX@####@XX#-=OO#**&XO.$@..X",
"+#.#@XXXXXXXXX#=-$OO$&%%@OO% XX@",
"+#.#@XX###XXX$**=@OOOOOOOOO*%@X@",
"+#.$@X@&&&%XX$=*&XO.###    =&#@@",
"+#.$XX#%%&*XX -*&XOX&&*=-==*%#@#",
"+#.#XX#$%&=@X@***#OO&&*-.X%&$#@#",
"+#O#XX#$%%& XX*==&OO@&*#OO&&$#@#",
"+#O@XX#$%%$ XX%=-=@OOOOOO$&% @@@",
"+#OX@@$$$$$ @#$=**&#.OO@%&%$#@X@",
"+#OO#$$$$$  $$%&&&&%&&&&&%% #@X@",
"+#OOX$$%%%$$$%&&&%%$%%&&%%$#@XX@",
"+#OO.#$$$$$ $$$$$$ $$$%%%$#@@X.X",
"+#OO..#$$             $$$#@@X..X",
"+#OOO..#  ############# @@XX...X",
"+#OOOOO.@#########@@@@@XX....O.X",
"+#OOOOOOO.X@@@@@@@@XX.OO..OOOOOX",
"+@OOOOOOOOOO..XXX..OOOOOOOOOOOOX",
"+&$$$$$$$$$$$$$$$$$$$$$$$$$$$$$.",
"&+++++++++++++++++++++++++++++oX"};
